<?xml version="1.0" standalone="no"?>
<!DOCTYPE svg PUBLIC "-//W3C//DTD SVG 20010904//EN"
 "http://www.w3.org/TR/2001/REC-SVG-20010904/DTD/svg10.dtd">
<svg version="1.0" xmlns="http://www.w3.org/2000/svg"
 width="64.000000pt" height="64.000000pt" viewBox="0 0 64.000000 64.000000"
 preserveAspectRatio="xMidYMid meet">

<g transform="translate(0.000000,64.000000) scale(0.100000,-0.100000)"
fill="#000000" stroke="none">
<path d="M33 426 c-22 -19 -28 -32 -28 -66 0 -35 6 -47 33 -71 18 -16 41 -29
52 -29 11 0 20 -5 20 -10 0 -6 11 -22 25 -35 18 -19 35 -25 69 -25 40 0 48 4
80 41 32 38 56 45 56 15 0 -27 45 -56 89 -56 37 0 49 6 75 34 18 18 49 41 69
51 74 35 86 116 23 155 -47 29 -91 26 -125 -8 -15 -15 -31 -34 -34 -42 -6 -13
-8 -13 -14 0 -3 8 -20 27 -36 43 -53 49 -122 33 -162 -37 -9 -17 -14 -14 -52
23 -49 50 -95 55 -140 17z m339 -16 l33 -29 -27 -23 c-15 -13 -32 -35 -37 -50
-13 -36 -26 -35 -39 2 -6 16 -22 35 -36 42 -33 14 -33 29 0 62 35 34 66 33
106 -4z m225 -2 c33 -31 30 -70 -8 -102 -38 -33 -55 -33 -63 -1 -3 13 -20 35
-36 47 -17 12 -30 25 -30 29 0 3 12 19 27 33 32 32 72 30 110 -6z m-438 -2
l22 -23 -36 -36 c-19 -19 -35 -42 -35 -51 0 -24 -37 -19 -65 9 -31 30 -33 77
-5 105 29 29 90 27 119 -4z m61 -62 c0 -9 16 -32 36 -52 l36 -36 -31 -28 c-17
-15 -42 -28 -55 -28 -24 0 -76 35 -76 51 0 5 16 23 35 40 19 17 35 40 35 50 0
10 5 19 10 19 6 0 10 -7 10 -16z m224 -14 c3 -20 16 -37 36 -48 16 -9 30 -20
30 -24 0 -15 -63 -58 -86 -58 -25 0 -74 40 -74 59 0 6 11 18 24 26 13 9 29 29
36 45 16 38 26 38 34 0z m-264 7 c0 -17 -38 -53 -46 -44 -8 8 23 57 36 57 6 0
10 -6 10 -13z m107 -43 c-10 -10 -47 26 -47 45 0 11 7 8 27 -11 15 -15 24 -31
20 -34z m98 26 c-10 -11 -20 -18 -23 -15 -3 3 3 14 13 25 10 11 20 18 23 15 3
-3 -3 -14 -13 -25z m125 -16 c0 -8 -3 -14 -7 -14 -12 0 -43 33 -43 47 0 11 5
10 25 -3 14 -9 25 -23 25 -30z"/>
</g>
</svg>
